<svg width="37" height="37" viewBox="0 0 37 37" fill="none" xmlns="http://www.w3.org/2000/svg">
  <path
    d="M25.2802 11.6825C25.5972 11.3807 26.0189 11.2139 26.4565 11.2172C26.8942 11.2205 27.3134 11.3937 27.6257 11.7002C27.9381 12.0067 28.1191 12.4226 28.1307 12.8601C28.1423 13.2975 27.9834 13.7224 27.6877 14.045L18.7102 25.2725C18.5558 25.4387 18.3695 25.5722 18.1624 25.6648C17.9553 25.7574 17.7316 25.8073 17.5048 25.8115C17.2779 25.8157 17.0526 25.7741 16.8422 25.6892C16.6318 25.6044 16.4406 25.4779 16.2802 25.3175L10.3267 19.364C10.1609 19.2095 10.0279 19.0232 9.9357 18.8162C9.84347 18.6092 9.79387 18.3857 9.78987 18.1591C9.78588 17.9326 9.82756 17.7075 9.91243 17.4974C9.9973 17.2873 10.1236 17.0964 10.2839 16.9361C10.4441 16.7759 10.635 16.6496 10.8451 16.5647C11.0552 16.4798 11.2803 16.4381 11.5069 16.4421C11.7335 16.4461 11.9569 16.4957 12.1639 16.588C12.3709 16.6802 12.5572 16.8132 12.7117 16.979L17.4232 21.6882L25.2375 11.732C25.2515 11.7146 25.2665 11.6981 25.2825 11.6825H25.2802Z"
    fill="#0075FF" />
</svg>