<svg width="16" height="16" viewBox="0 0 16 16" fill="none" xmlns="http://www.w3.org/2000/svg">
  <path
    d="M0.453557 0.453435C0.55806 0.348668 0.682205 0.265546 0.818882 0.208832C0.955558 0.152117 1.10208 0.122925 1.25006 0.122925C1.39803 0.122925 1.54456 0.152117 1.68123 0.208832C1.81791 0.265546 1.94205 0.348668 2.04656 0.453435L8.00006 6.40919L13.9536 0.453435C14.0582 0.348837 14.1823 0.265866 14.319 0.209258C14.4557 0.15265 14.6021 0.123514 14.7501 0.123514C14.898 0.123514 15.0445 0.15265 15.1811 0.209258C15.3178 0.265866 15.442 0.348837 15.5466 0.453435C15.6512 0.558033 15.7341 0.682208 15.7907 0.818872C15.8473 0.955536 15.8765 1.10201 15.8765 1.24994C15.8765 1.39786 15.8473 1.54433 15.7907 1.681C15.7341 1.81766 15.6512 1.94184 15.5466 2.04644L9.59081 7.99993L15.5466 13.9534C15.6512 14.058 15.7341 14.1822 15.7907 14.3189C15.8473 14.4555 15.8765 14.602 15.8765 14.7499C15.8765 14.8979 15.8473 15.0443 15.7907 15.181C15.7341 15.3177 15.6512 15.4418 15.5466 15.5464C15.442 15.651 15.3178 15.734 15.1811 15.7906C15.0445 15.8472 14.898 15.8764 14.7501 15.8764C14.6021 15.8764 14.4557 15.8472 14.319 15.7906C14.1823 15.734 14.0582 15.651 13.9536 15.5464L8.00006 9.59068L2.04656 15.5464C1.94196 15.651 1.81778 15.734 1.68112 15.7906C1.54446 15.8472 1.39798 15.8764 1.25006 15.8764C1.10213 15.8764 0.955658 15.8472 0.818994 15.7906C0.682331 15.734 0.558155 15.651 0.453557 15.5464C0.348959 15.4418 0.265988 15.3177 0.20938 15.181C0.152772 15.0443 0.123636 14.8979 0.123636 14.7499C0.123636 14.602 0.152772 14.4555 0.20938 14.3189C0.265988 14.1822 0.348959 14.058 0.453557 13.9534L6.40931 7.99993L0.453557 2.04644C0.34879 1.94193 0.265668 1.81779 0.208954 1.68111C0.152239 1.54443 0.123047 1.39791 0.123047 1.24994C0.123047 1.10196 0.152239 0.955436 0.208954 0.818759C0.265668 0.682083 0.34879 0.557938 0.453557 0.453435Z"
    fill="white" />
</svg>