<svg width="49" height="49" viewBox="0 0 49 49" fill="none" xmlns="http://www.w3.org/2000/svg">
  <g clip-path="url(#clip0_70_1146)">
    <path d="M48.4023 0.5H0.402283V48.5H48.4023V0.5Z" fill="#1877F2" />
    <path
      d="M36.4023 24.5C36.4023 17.9 31.0023 12.5 24.4023 12.5C17.8023 12.5 12.4023 17.9 12.4023 24.5C12.4023 30.5 16.7523 35.45 22.4523 36.35V27.95H19.4523V24.5H22.4523V21.8C22.4523 18.8 24.2523 17.15 26.9523 17.15C28.3023 17.15 29.6523 17.45 29.6523 17.45V20.45H28.1523C26.6523 20.45 26.2023 21.35 26.2023 22.25V24.5H29.5023L28.9023 27.95H26.0523V36.5C32.0523 35.6 36.4023 30.5 36.4023 24.5Z"
      fill="white" />
  </g>
  <defs>
    <clipPath id="clip0_70_1146">
      <rect x="0.402283" y="0.5" width="48" height="48" rx="6" fill="white" />
    </clipPath>
  </defs>
</svg>