<svg width="36" height="37" viewBox="0 0 36 37" fill="none" xmlns="http://www.w3.org/2000/svg">
  <g clip-path="url(#clip0_49_262)">
    <g filter="url(#filter0_i_49_262)">
      <path
        d="M24.75 0.5H11.25C5.0368 0.5 0 5.5368 0 11.75V25.25C0 31.4632 5.0368 36.5 11.25 36.5H24.75C30.9632 36.5 36 31.4632 36 25.25V11.75C36 5.5368 30.9632 0.5 24.75 0.5Z"
        fill="url(#paint0_radial_49_262)" />
    </g>
    <g filter="url(#filter1_i_49_262)">
      <path fill-rule="evenodd" clip-rule="evenodd"
        d="M26.8758 27.5222C24.5915 29.7697 21.4577 31.1562 18 31.1562C14.5499 31.1562 11.4223 29.7759 9.13928 27.5371C14.3223 23.4549 21.6875 23.45 26.8758 27.5222ZM27.0221 27.3759C29.2697 25.0917 30.6562 21.9578 30.6562 18.5C30.6562 15.0509 29.2764 11.924 27.0389 9.64116C22.955 14.8382 22.9494 22.1894 27.0221 27.3759ZM26.895 9.49665C21.6992 13.589 14.3106 13.584 9.12012 9.48177C11.4048 7.23197 14.5403 5.84375 18 5.84375C21.4674 5.84375 24.6091 7.2381 26.895 9.49665ZM8.98177 9.62012C6.73197 11.9047 5.34375 15.0403 5.34375 18.5C5.34375 21.9674 6.7381 25.1091 8.99665 27.395C13.089 22.1992 13.084 14.8105 8.98177 9.62012Z"
        fill="url(#paint1_linear_49_262)" />
      <path fill-rule="evenodd" clip-rule="evenodd"
        d="M26.8758 27.5222C24.5915 29.7697 21.4577 31.1562 18 31.1562C14.5499 31.1562 11.4223 29.7759 9.13928 27.5371C14.3223 23.4549 21.6875 23.45 26.8758 27.5222ZM27.0221 27.3759C29.2697 25.0917 30.6562 21.9578 30.6562 18.5C30.6562 15.0509 29.2764 11.924 27.0389 9.64116C22.955 14.8382 22.9494 22.1894 27.0221 27.3759ZM26.895 9.49665C21.6992 13.589 14.3106 13.584 9.12012 9.48177C11.4048 7.23197 14.5403 5.84375 18 5.84375C21.4674 5.84375 24.6091 7.2381 26.895 9.49665ZM8.98177 9.62012C6.73197 11.9047 5.34375 15.0403 5.34375 18.5C5.34375 21.9674 6.7381 25.1091 8.99665 27.395C13.089 22.1992 13.084 14.8105 8.98177 9.62012Z"
        fill="url(#paint2_radial_49_262)" />
    </g>
  </g>
  <defs>
    <filter id="filter0_i_49_262" x="0" y="0.5" width="36" height="36" filterUnits="userSpaceOnUse"
      color-interpolation-filters="sRGB">
      <feFlood flood-opacity="0" result="BackgroundImageFix" />
      <feBlend mode="normal" in="SourceGraphic" in2="BackgroundImageFix" result="shape" />
      <feColorMatrix in="SourceAlpha" type="matrix" values="0 0 0 0 0 0 0 0 0 0 0 0 0 0 0 0 0 0 127 0"
        result="hardAlpha" />
      <feOffset />
      <feGaussianBlur stdDeviation="5" />
      <feComposite in2="hardAlpha" operator="arithmetic" k2="-1" k3="1" />
      <feColorMatrix type="matrix" values="0 0 0 0 0.300667 0 0 0 0 0 0 0 0 0 0.683333 0 0 0 0.5 0" />
      <feBlend mode="normal" in2="shape" result="effect1_innerShadow_49_262" />
    </filter>
    <filter id="filter1_i_49_262" x="5.34375" y="5.84375" width="25.3125" height="28.8986" filterUnits="userSpaceOnUse"
      color-interpolation-filters="sRGB">
      <feFlood flood-opacity="0" result="BackgroundImageFix" />
      <feBlend mode="normal" in="SourceGraphic" in2="BackgroundImageFix" result="shape" />
      <feColorMatrix in="SourceAlpha" type="matrix" values="0 0 0 0 0 0 0 0 0 0 0 0 0 0 0 0 0 0 127 0"
        result="hardAlpha" />
      <feOffset dy="3.58611" />
      <feGaussianBlur stdDeviation="1.79306" />
      <feComposite in2="hardAlpha" operator="arithmetic" k2="-1" k3="1" />
      <feColorMatrix type="matrix" values="0 0 0 0 0 0 0 0 0 0 0 0 0 0 0 0 0 0 0.2 0" />
      <feBlend mode="overlay" in2="shape" result="effect1_innerShadow_49_262" />
    </filter>
    <radialGradient id="paint0_radial_49_262" cx="0" cy="0" r="1" gradientUnits="userSpaceOnUse"
      gradientTransform="translate(2.10383 3.6579) rotate(44.1095) scale(43.1016 42.9702)">
      <stop stop-color="#8000FF" />
      <stop offset="0.505208" stop-color="#A732D6" />
      <stop offset="1" stop-color="#EF79FF" />
    </radialGradient>
    <linearGradient id="paint1_linear_49_262" x1="18" y1="5.84375" x2="18" y2="31.1562" gradientUnits="userSpaceOnUse">
      <stop stop-color="white" />
      <stop offset="1" stop-color="white" stop-opacity="0.7" />
    </linearGradient>
    <radialGradient id="paint2_radial_49_262" cx="0" cy="0" r="1" gradientUnits="userSpaceOnUse"
      gradientTransform="translate(18 18.5) rotate(90) scale(12.6562)">
      <stop offset="0.90625" stop-color="white" stop-opacity="0" />
      <stop offset="1" stop-color="white" />
    </radialGradient>
    <clipPath id="clip0_49_262">
      <rect width="36" height="36" fill="white" transform="translate(0 0.5)" />
    </clipPath>
  </defs>
</svg>