<svg width="19" height="16" viewBox="0 0 19 16" fill="none" xmlns="http://www.w3.org/2000/svg">
  <path
    d="M15.6825 1.18247C15.9994 0.88072 16.4212 0.7139 16.8588 0.717211C17.2964 0.720523 17.7156 0.893706 18.028 1.20022C18.3403 1.50673 18.5214 1.92259 18.533 2.36006C18.5445 2.79753 18.3857 3.22238 18.09 3.54497L9.11249 14.7725C8.95812 14.9387 8.7718 15.0722 8.56469 15.1648C8.35757 15.2574 8.1339 15.3073 7.90705 15.3115C7.68021 15.3157 7.45485 15.2741 7.24444 15.1892C7.03404 15.1044 6.84291 14.9779 6.68249 14.8175L0.728988 8.86397C0.563193 8.70948 0.430213 8.52318 0.337981 8.31618C0.245749 8.10918 0.196155 7.88573 0.192157 7.65915C0.188159 7.43257 0.22984 7.2075 0.314713 6.99738C0.399585 6.78725 0.52591 6.59638 0.686152 6.43613C0.846395 6.27589 1.03727 6.14957 1.24739 6.06469C1.45752 5.97982 1.68258 5.93814 1.90916 5.94214C2.13575 5.94614 2.3592 5.99573 2.5662 6.08796C2.7732 6.1802 2.9595 6.31318 3.11399 6.47897L7.82549 11.1882L15.6397 1.23197C15.6538 1.21465 15.6688 1.19812 15.6847 1.18247H15.6825Z"
    fill="#05FF00" />
</svg>