<svg width="244" height="33" viewBox="0 0 244 33" fill="none" xmlns="http://www.w3.org/2000/svg">
  <path
    d="M15.9847 0.33C7.16469 0.33 0.0546876 7.56 0.0546876 16.26C0.0546876 25.14 7.22469 32.19 15.9847 32.19C24.8947 32.19 31.9147 25.02 31.9147 16.26C31.9147 7.53 24.8347 0.33 15.9847 0.33ZM15.9847 26.79C10.1947 26.79 5.45469 22.08 5.45469 16.26C5.45469 10.47 10.1947 5.73 15.9847 5.73C21.8047 5.73 26.5147 10.47 26.5147 16.26C26.5147 22.08 21.8047 26.79 15.9847 26.79ZM15.9847 12.45C13.8847 12.45 12.1747 14.16 12.1747 16.26C12.1747 18.39 13.8847 20.1 15.9847 20.1C18.1147 20.1 19.8247 18.39 19.8247 16.26C19.8247 14.16 18.1147 12.45 15.9847 12.45ZM51.035 17.58L36.125 0V31.5H41.525V14.73L56.435 32.31V1.02H51.035V17.58ZM62.4219 18.93H70.5819V14.04H62.4219V18.93ZM92.5198 5.76C95.2798 5.76 97.8598 6.81 99.8398 8.73L103.62 4.86C100.59 1.95 96.7198 0.36 92.5198 0.36C83.6698 0.36 76.5898 7.53 76.5898 16.26V16.29C76.5898 25.14 83.7898 32.19 92.5198 32.19C96.6898 32.19 100.62 30.57 103.62 27.69L99.8398 23.82C97.8598 25.74 95.2798 26.79 92.5198 26.79C86.6998 26.79 81.9898 22.08 81.9898 16.26C81.9898 10.47 86.6998 5.76 92.5198 5.76ZM122.366 10.56H112.646V1.02H107.246V31.5H112.646V15.96H122.366V31.5H127.766V1.02H122.366V10.56ZM156.291 31.5L143.811 0.33L131.961 31.5H137.751L138.831 28.68H149.361L150.471 31.5H156.291ZM147.291 23.58H140.751L143.961 15.18L147.291 23.58ZM160.508 31.5H165.908V1.02H160.508V31.5ZM186.808 17.58L171.898 0V31.5H177.298V14.73L192.208 32.31V1.02H186.808V17.58ZM201.465 25.26C199.665 25.26 198.195 26.7 198.195 28.5C198.195 30.3 199.665 31.77 201.465 31.77C203.265 31.77 204.705 30.3 204.705 28.5C204.705 26.7 203.265 25.26 201.465 25.26ZM210.711 31.5H216.111V1.02H210.711V31.5ZM222.102 31.5H227.562C236.952 31.5 243.942 25.71 243.942 16.26C243.942 6.69 236.772 1.02 227.562 1.02H222.102V21.78H227.502V6.42H227.562C234.342 6.42 238.542 10.17 238.542 16.26C238.542 22.35 234.342 26.1 227.562 26.1H222.102V31.5Z"
    fill="black" />
  <path
    d="M15.9847 -0.67C6.60751 -0.67 -0.945312 7.01262 -0.945312 16.26H1.05469C1.05469 8.10738 7.72186 1.33 15.9847 1.33V-0.67ZM-0.945312 16.26C-0.945312 25.6972 6.67732 33.19 15.9847 33.19V31.19C7.77206 31.19 1.05469 24.5828 1.05469 16.26H-0.945312ZM15.9847 33.19C25.4531 33.19 32.9147 25.5661 32.9147 16.26H30.9147C30.9147 24.4739 24.3363 31.19 15.9847 31.19V33.19ZM32.9147 16.26C32.9147 6.98263 25.3919 -0.67 15.9847 -0.67V1.33C24.2775 1.33 30.9147 8.07737 30.9147 16.26H32.9147ZM15.9847 25.79C10.7451 25.79 6.45469 21.5259 6.45469 16.26H4.45469C4.45469 22.6341 9.64426 27.79 15.9847 27.79V25.79ZM6.45469 16.26C6.45469 11.0223 10.747 6.73 15.9847 6.73V4.73C9.6424 4.73 4.45469 9.91771 4.45469 16.26H6.45469ZM15.9847 6.73C21.2505 6.73 25.5147 11.0204 25.5147 16.26H27.5147C27.5147 9.91957 22.3588 4.73 15.9847 4.73V6.73ZM25.5147 16.26C25.5147 21.5277 21.2524 25.79 15.9847 25.79V27.79C22.357 27.79 27.5147 22.6323 27.5147 16.26H25.5147ZM15.9847 11.45C13.3324 11.45 11.1747 13.6077 11.1747 16.26H13.1747C13.1747 14.7123 14.437 13.45 15.9847 13.45V11.45ZM11.1747 16.26C11.1747 18.9372 13.3273 21.1 15.9847 21.1V19.1C14.4421 19.1 13.1747 17.8428 13.1747 16.26H11.1747ZM15.9847 21.1C18.667 21.1 20.8247 18.9423 20.8247 16.26H18.8247C18.8247 17.8377 17.5624 19.1 15.9847 19.1V21.1ZM20.8247 16.26C20.8247 13.6026 18.6619 11.45 15.9847 11.45V13.45C17.5675 13.45 18.8247 14.7174 18.8247 16.26H20.8247ZM51.035 17.58L50.2724 18.2268L52.035 20.3051V17.58H51.035ZM36.125 0L36.8876 -0.646817L35.125 -2.72511V0H36.125ZM36.125 31.5H35.125V32.5H36.125V31.5ZM41.525 31.5V32.5H42.525V31.5H41.525ZM41.525 14.73L42.2876 14.0832L40.525 12.0049V14.73H41.525ZM56.435 32.31L55.6724 32.9568L57.435 35.0351V32.31H56.435ZM56.435 1.02H57.435V0.019999H56.435V1.02ZM51.035 1.02V0.019999H50.035V1.02H51.035ZM51.7976 16.9332L36.8876 -0.646817L35.3624 0.646817L50.2724 18.2268L51.7976 16.9332ZM35.125 0V31.5H37.125V0H35.125ZM36.125 32.5H41.525V30.5H36.125V32.5ZM42.525 31.5V14.73H40.525V31.5H42.525ZM40.7624 15.3768L55.6724 32.9568L57.1976 31.6632L42.2876 14.0832L40.7624 15.3768ZM57.435 32.31V1.02H55.435V32.31H57.435ZM56.435 0.019999H51.035V2.02H56.435V0.019999ZM50.035 1.02V17.58H52.035V1.02H50.035ZM62.4219 18.93H61.4219V19.93H62.4219V18.93ZM70.5819 18.93V19.93H71.5819V18.93H70.5819ZM70.5819 14.04H71.5819V13.04H70.5819V14.04ZM62.4219 14.04V13.04H61.4219V14.04H62.4219ZM62.4219 19.93H70.5819V17.93H62.4219V19.93ZM71.5819 18.93V14.04H69.5819V18.93H71.5819ZM70.5819 13.04H62.4219V15.04H70.5819V13.04ZM61.4219 14.04V18.93H63.4219V14.04H61.4219ZM99.8398 8.73L99.1437 9.4479L99.859 10.1415L100.555 9.42874L99.8398 8.73ZM103.62 4.86L104.335 5.55874L105.04 4.8373L104.313 4.13875L103.62 4.86ZM103.62 27.69L104.312 28.4114L105.04 27.7128L104.335 26.9913L103.62 27.69ZM99.8398 23.82L100.555 23.1213L99.859 22.4085L99.1437 23.1021L99.8398 23.82ZM92.5198 6.76C95.0189 6.76 97.3495 7.70811 99.1437 9.4479L100.536 8.0121C98.3702 5.91189 95.5408 4.76 92.5198 4.76V6.76ZM100.555 9.42874L104.335 5.55874L102.904 4.16126L99.1245 8.03126L100.555 9.42874ZM104.313 4.13875C101.1 1.05366 96.9835 -0.64 92.5198 -0.64V1.36C96.4562 1.36 100.079 2.84634 102.927 5.58124L104.313 4.13875ZM92.5198 -0.64C83.1151 -0.64 75.5898 6.98017 75.5898 16.26H77.5898C77.5898 8.07983 84.2246 1.36 92.5198 1.36V-0.64ZM75.5898 16.26V16.29H77.5898V16.26H75.5898ZM75.5898 16.29C75.5898 25.6996 83.2449 33.19 92.5198 33.19V31.19C84.3347 31.19 77.5898 24.5804 77.5898 16.29H75.5898ZM92.5198 33.19C96.954 33.19 101.131 31.466 104.312 28.4114L102.927 26.9686C100.109 29.674 96.4257 31.19 92.5198 31.19V33.19ZM104.335 26.9913L100.555 23.1213L99.1245 24.5187L102.904 28.3887L104.335 26.9913ZM99.1437 23.1021C97.3495 24.8419 95.0189 25.79 92.5198 25.79V27.79C95.5408 27.79 98.3702 26.6381 100.536 24.5379L99.1437 23.1021ZM92.5198 25.79C87.2521 25.79 82.9898 21.5277 82.9898 16.26H80.9898C80.9898 22.6323 86.1476 27.79 92.5198 27.79V25.79ZM82.9898 16.26C82.9898 11.0241 87.2503 6.76 92.5198 6.76V4.76C86.1494 4.76 80.9898 9.91586 80.9898 16.26H82.9898ZM122.366 10.56V11.56H123.366V10.56H122.366ZM112.646 10.56H111.646V11.56H112.646V10.56ZM112.646 1.02H113.646V0.019999H112.646V1.02ZM107.246 1.02V0.019999H106.246V1.02H107.246ZM107.246 31.5H106.246V32.5H107.246V31.5ZM112.646 31.5V32.5H113.646V31.5H112.646ZM112.646 15.96V14.96H111.646V15.96H112.646ZM122.366 15.96H123.366V14.96H122.366V15.96ZM122.366 31.5H121.366V32.5H122.366V31.5ZM127.766 31.5V32.5H128.766V31.5H127.766ZM127.766 1.02H128.766V0.019999H127.766V1.02ZM122.366 1.02V0.019999H121.366V1.02H122.366ZM122.366 9.56H112.646V11.56H122.366V9.56ZM113.646 10.56V1.02H111.646V10.56H113.646ZM112.646 0.019999H107.246V2.02H112.646V0.019999ZM106.246 1.02V31.5H108.246V1.02H106.246ZM107.246 32.5H112.646V30.5H107.246V32.5ZM113.646 31.5V15.96H111.646V31.5H113.646ZM112.646 16.96H122.366V14.96H112.646V16.96ZM121.366 15.96V31.5H123.366V15.96H121.366ZM122.366 32.5H127.766V30.5H122.366V32.5ZM128.766 31.5V1.02H126.766V31.5H128.766ZM127.766 0.019999H122.366V2.02H127.766V0.019999ZM121.366 1.02V10.56H123.366V1.02H121.366ZM156.291 31.5V32.5H157.768L157.219 31.1283L156.291 31.5ZM143.811 0.33L144.739 -0.0416991L143.787 -2.4206L142.876 -0.0253596L143.811 0.33ZM131.961 31.5L131.026 31.1446L130.511 32.5H131.961V31.5ZM137.751 31.5V32.5H138.439L138.685 31.8576L137.751 31.5ZM138.831 28.68V27.68H138.143L137.897 28.3224L138.831 28.68ZM149.361 28.68L150.291 28.3137L150.042 27.68H149.361V28.68ZM150.471 31.5L149.54 31.8663L149.79 32.5H150.471V31.5ZM147.291 23.58V24.58H148.763L148.221 23.2115L147.291 23.58ZM140.751 23.58L139.817 23.223L139.298 24.58H140.751V23.58ZM143.961 15.18L144.891 14.8115L143.944 12.4234L143.027 14.823L143.961 15.18ZM157.219 31.1283L144.739 -0.0416991L142.883 0.701698L155.363 31.8717L157.219 31.1283ZM142.876 -0.0253596L131.026 31.1446L132.896 31.8554L144.746 0.685359L142.876 -0.0253596ZM131.961 32.5H137.751V30.5H131.961V32.5ZM138.685 31.8576L139.765 29.0376L137.897 28.3224L136.817 31.1424L138.685 31.8576ZM138.831 29.68H149.361V27.68H138.831V29.68ZM148.43 29.0463L149.54 31.8663L151.401 31.1337L150.291 28.3137L148.43 29.0463ZM150.471 32.5H156.291V30.5H150.471V32.5ZM147.291 22.58H140.751V24.58H147.291V22.58ZM141.685 23.937L144.895 15.537L143.027 14.823L139.817 23.223L141.685 23.937ZM143.031 15.5485L146.361 23.9485L148.221 23.2115L144.891 14.8115L143.031 15.5485ZM160.508 31.5H159.508V32.5H160.508V31.5ZM165.908 31.5V32.5H166.908V31.5H165.908ZM165.908 1.02H166.908V0.019999H165.908V1.02ZM160.508 1.02V0.019999H159.508V1.02H160.508ZM160.508 32.5H165.908V30.5H160.508V32.5ZM166.908 31.5V1.02H164.908V31.5H166.908ZM165.908 0.019999H160.508V2.02H165.908V0.019999ZM159.508 1.02V31.5H161.508V1.02H159.508ZM186.808 17.58L186.046 18.2268L187.808 20.3051V17.58H186.808ZM171.898 0L172.661 -0.646817L170.898 -2.72511V0H171.898ZM171.898 31.5H170.898V32.5H171.898V31.5ZM177.298 31.5V32.5H178.298V31.5H177.298ZM177.298 14.73L178.061 14.0832L176.298 12.0049V14.73H177.298ZM192.208 32.31L191.446 32.9568L193.208 35.0351V32.31H192.208ZM192.208 1.02H193.208V0.019999H192.208V1.02ZM186.808 1.02V0.019999H185.808V1.02H186.808ZM187.571 16.9332L172.661 -0.646817L171.136 0.646817L186.046 18.2268L187.571 16.9332ZM170.898 0V31.5H172.898V0H170.898ZM171.898 32.5H177.298V30.5H171.898V32.5ZM178.298 31.5V14.73H176.298V31.5H178.298ZM176.536 15.3768L191.446 32.9568L192.971 31.6632L178.061 14.0832L176.536 15.3768ZM193.208 32.31V1.02H191.208V32.31H193.208ZM192.208 0.019999H186.808V2.02H192.208V0.019999ZM185.808 1.02V17.58H187.808V1.02H185.808ZM201.465 24.26C199.125 24.26 197.195 26.1357 197.195 28.5H199.195C199.195 27.2643 200.206 26.26 201.465 26.26V24.26ZM197.195 28.5C197.195 30.8523 199.113 32.77 201.465 32.77V30.77C200.218 30.77 199.195 29.7477 199.195 28.5H197.195ZM201.465 32.77C203.83 32.77 205.705 30.8402 205.705 28.5H203.705C203.705 29.7598 202.701 30.77 201.465 30.77V32.77ZM205.705 28.5C205.705 26.1477 203.818 24.26 201.465 24.26V26.26C202.713 26.26 203.705 27.2523 203.705 28.5H205.705ZM210.711 31.5H209.711V32.5H210.711V31.5ZM216.111 31.5V32.5H217.111V31.5H216.111ZM216.111 1.02H217.111V0.019999H216.111V1.02ZM210.711 1.02V0.019999H209.711V1.02H210.711ZM210.711 32.5H216.111V30.5H210.711V32.5ZM217.111 31.5V1.02H215.111V31.5H217.111ZM216.111 0.019999H210.711V2.02H216.111V0.019999ZM209.711 1.02V31.5H211.711V1.02H209.711ZM222.102 31.5H221.102V32.5H222.102V31.5ZM222.102 1.02V0.019999H221.102V1.02H222.102ZM222.102 21.78H221.102V22.78H222.102V21.78ZM227.502 21.78V22.78H228.502V21.78H227.502ZM227.502 6.42V5.42H226.502V6.42H227.502ZM222.102 26.1V25.1H221.102V26.1H222.102ZM222.102 32.5H227.562V30.5H222.102V32.5ZM227.562 32.5C232.459 32.5 236.806 30.9888 239.942 28.1671C243.089 25.3351 244.942 21.2475 244.942 16.26H242.942C242.942 20.7225 241.299 24.2549 238.604 26.6804C235.897 29.1162 232.054 30.5 227.562 30.5V32.5ZM244.942 16.26C244.942 11.2074 243.04 7.11876 239.869 4.30347C236.712 1.50016 232.367 0.019999 227.562 0.019999V2.02C231.966 2.02 235.811 3.37483 238.541 5.79903C241.258 8.21123 242.942 11.7426 242.942 16.26H244.942ZM227.562 0.019999H222.102V2.02H227.562V0.019999ZM221.102 1.02V21.78H223.102V1.02H221.102ZM222.102 22.78H227.502V20.78H222.102V22.78ZM228.502 21.78V6.42H226.502V21.78H228.502ZM227.502 7.42H227.562V5.42H227.502V7.42ZM227.562 7.42C230.773 7.42 233.258 8.30696 234.927 9.8013C236.583 11.2839 237.542 13.4571 237.542 16.26H239.542C239.542 12.9729 238.4 10.2261 236.261 8.3112C234.135 6.40804 231.13 5.42 227.562 5.42V7.42ZM237.542 16.26C237.542 19.0629 236.583 21.2361 234.927 22.7187C233.258 24.213 230.773 25.1 227.562 25.1V27.1C231.13 27.1 234.135 26.112 236.261 24.2088C238.4 22.2939 239.542 19.5471 239.542 16.26H237.542ZM227.562 25.1H222.102V27.1H227.562V25.1ZM221.102 26.1V31.5H223.102V26.1H221.102Z"
    fill="black" />
</svg>