<svg width="16" height="19" viewBox="0 0 16 19" fill="none" xmlns="http://www.w3.org/2000/svg">
  <path fill-rule="evenodd" clip-rule="evenodd"
    d="M8.00002 19.0001C8.29839 19.0001 8.58454 18.8815 8.79551 18.6706C9.00649 18.4596 9.12502 18.1734 9.12502 17.8751V4.84081L13.9535 9.67156C14.0581 9.77616 14.1823 9.85913 14.319 9.91574C14.4556 9.97234 14.6021 10.0015 14.75 10.0015C14.8979 10.0015 15.0444 9.97234 15.1811 9.91574C15.3177 9.85913 15.4419 9.77616 15.5465 9.67156C15.6511 9.56696 15.7341 9.44278 15.7907 9.30612C15.8473 9.16946 15.8764 9.02298 15.8764 8.87506C15.8764 8.72713 15.8473 8.58066 15.7907 8.44399C15.7341 8.30733 15.6511 8.18316 15.5465 8.07856L8.79652 1.32856C8.69202 1.22379 8.56787 1.14067 8.43119 1.08395C8.29452 1.02724 8.14799 0.998047 8.00002 0.998047C7.85204 0.998047 7.70552 1.02724 7.56884 1.08395C7.43217 1.14067 7.30802 1.22379 7.20352 1.32856L0.453518 8.07856C0.242273 8.2898 0.123596 8.57631 0.123596 8.87506C0.123596 9.1738 0.242273 9.46031 0.453518 9.67156C0.664762 9.8828 0.951272 10.0015 1.25002 10.0015C1.54876 10.0015 1.83527 9.8828 2.04652 9.67156L6.87502 4.84081V17.8751C6.87502 18.1734 6.99354 18.4596 7.20452 18.6706C7.4155 18.8815 7.70165 19.0001 8.00002 19.0001Z"
    fill="#05FF00" />
</svg>