<svg width="41" height="38" viewBox="0 0 41 38" fill="none" xmlns="http://www.w3.org/2000/svg">
<path d="M16.2021 14.7368C15.4308 14.5639 14.7996 15.0691 14.7996 15.8597L14.7996 21.9757C14.7996 22.7662 15.257 22.9557 15.8159 22.3967L21.1271 17.0855C21.6861 16.5265 21.5123 15.9276 20.741 15.7547L16.2021 14.7368Z" fill="white" stroke="black"/>
<path d="M24.1826 1.5817C23.926 1.9016 24.1488 2.64405 24.6778 3.23154L28.5977 7.58495C29.1266 8.17254 30.0168 8.1958 30.5757 7.63675L32.4571 5.75556C33.0159 5.19661 33.15 4.17904 32.7546 3.49437L32.0332 2.24475C31.6379 1.56007 30.6677 1 29.8772 1L26.0864 1C25.2958 1 24.4391 1.26181 24.1826 1.5817Z" fill="white" stroke="black"/>
<path d="M31.5493 26.304C31.0905 25.6602 30.5571 25.7609 30.3643 26.5275L28.0804 35.606C27.8876 36.3726 28.3766 36.9999 29.1672 36.9999L29.8772 36.9999C30.6677 36.9999 31.638 36.4398 32.0332 35.7551L34.1129 32.1529C34.5083 31.4682 34.4562 30.3815 33.9974 29.7377L31.5493 26.304Z" fill="white" stroke="black"/>
<path d="M10.3813 27.8312C10.9403 27.2722 10.8208 26.5222 10.1157 26.1647L3.13746 22.6257C2.43247 22.2681 2.17899 22.5358 2.57414 23.2203L6.40089 29.8482C6.79604 30.5328 7.57688 30.6357 8.13583 30.0766L10.3813 27.8312Z" fill="white" stroke="black"/>
<path d="M29.5891 19.2115C29.782 18.4449 29.3087 17.6761 28.5372 17.503L26.4758 17.0408C25.7046 16.8678 24.6161 17.1836 24.0571 17.7426L21.801 19.9985C21.242 20.5577 21.0396 21.6094 21.3514 22.3358L23.4599 27.2509C23.7716 27.9774 24.5669 28.2162 25.2272 27.7813L26.6706 26.831C27.3309 26.3963 28.0289 25.4134 28.2218 24.6466L29.5891 19.2115Z" fill="white" stroke="black"/>
<path d="M20.4985 2.12146C20.9931 1.50462 20.7508 1 19.9603 1L16.2368 1C15.4463 1 14.7995 1.6468 14.7995 2.43729L14.7995 7.79182C14.7995 8.58231 15.2041 8.72439 15.6987 8.10765L20.4985 2.12146Z" fill="white" stroke="black"/>
<path d="M23.6769 36.9999C24.4674 36.9999 25.272 36.3726 25.4649 35.606L26.605 31.0739C26.7979 30.3073 26.4154 30.0358 25.7551 30.4705L17.0382 36.2095C16.3779 36.6442 16.4845 36.9999 17.275 36.9999L23.6769 36.9999Z" fill="white" stroke="black"/>
<path d="M12.2631 30.9739C12.2631 30.1834 11.8057 29.9939 11.2468 30.5529L9.4489 32.3508C8.88995 32.9097 8.756 33.9272 9.15125 34.6119L9.81135 35.7551C10.2065 36.4398 10.9199 36.9999 11.3965 36.9999C11.8732 36.9999 12.2631 36.3531 12.2631 35.5625L12.2631 30.9739Z" fill="white" stroke="black"/>
<path d="M1.18659 17.183C0.791339 17.8676 1.04492 18.7204 1.74991 19.078L10.981 23.7595C11.6863 24.1171 12.2631 23.7628 12.2631 22.9722L12.2631 15.2908C12.2631 14.5003 11.632 13.712 10.8606 13.539L5.56071 12.3505C4.78941 12.1776 3.8347 12.5962 3.43956 13.2809L1.18659 17.183Z" fill="white" stroke="black"/>
<path d="M28.2133 13.5865C27.6542 14.1454 27.8281 14.7443 28.5995 14.9173L39.5462 17.372C40.3176 17.545 40.6253 17.1263 40.2301 16.4418L35.5051 8.25805C35.1098 7.57337 34.3291 7.4706 33.77 8.02955L28.2133 13.5865Z" fill="white" stroke="black"/>
<path d="M15.8158 25.9837C15.2569 26.5427 14.7995 27.6469 14.7995 28.4374L14.7995 33.2092C14.7995 33.9997 15.3397 34.2909 16 33.8562L20.6739 30.779C21.3342 30.3444 21.6194 29.3941 21.3078 28.6677L19.42 24.2672C19.1083 23.5407 18.396 23.4036 17.837 23.9625L15.8158 25.9837Z" fill="white" stroke="black"/>
<path d="M10.8606 10.9397C11.632 11.1126 12.2631 10.6073 12.2631 9.8168L12.2631 2.43729C12.2631 1.6468 11.8732 1 11.3965 1C10.9199 1 10.2065 1.56007 9.81135 2.24475L6.20568 8.4899C5.81033 9.17457 6.11814 9.87621 6.88944 10.0492L10.8606 10.9397Z" fill="white" stroke="black"/>
<path d="M22.8643 13.6314C23.6356 13.8044 24.7241 13.4885 25.2831 12.9294L26.7471 11.4655C27.306 10.9065 27.3306 9.96851 26.8017 9.38102L23.07 5.23671C22.5411 4.64922 21.7037 4.67319 21.2091 5.29002L16.6917 10.9241C16.1971 11.5409 16.4236 12.1872 17.195 12.3601L22.8643 13.6314Z" fill="white" stroke="black"/>
<path d="M40.2438 21.5338C40.6391 20.8493 40.3314 20.1475 39.56 19.9745L33.8183 18.6871C33.0469 18.514 32.258 18.9999 32.065 19.7665L31.878 20.5099C31.6852 21.2765 31.9029 22.4305 32.3618 23.0742L35.3911 27.3234C35.8501 27.967 36.5489 27.9336 36.9442 27.249L40.2438 21.5338Z" fill="white" stroke="black"/>
</svg>
