<svg width="39" height="37" viewBox="0 0 39 37" fill="none" xmlns="http://www.w3.org/2000/svg">
  <path
    d="M15.2081 18.8333C17.1309 18.8333 18.975 18.0694 20.3347 16.7098C21.6943 15.3501 22.4581 13.5061 22.4581 11.5833C22.4581 9.66043 21.6943 7.81637 20.3347 6.45673C18.975 5.09709 17.1309 4.33325 15.2081 4.33325C13.2853 4.33325 11.4412 5.09709 10.0816 6.45673C8.72197 7.81637 7.95813 9.66043 7.95813 11.5833C7.95813 13.5061 8.72197 15.3501 10.0816 16.7098C11.4412 18.0694 13.2853 18.8333 15.2081 18.8333ZM3.95761 32.3333C3.95788 32.3333 3.95813 32.3333 3.95813 31.8333V32.3333H26.4581V31.8333C26.4581 32.3333 26.4584 32.3333 26.4586 32.3333L26.4592 32.3333L26.4605 32.3332L26.4637 32.3332L26.4726 32.3331L26.5001 32.3324C26.5224 32.3317 26.5529 32.3303 26.5904 32.3276C26.6652 32.3222 26.7689 32.3118 26.8919 32.2913C27.1356 32.2507 27.4681 32.1685 27.8067 31.9992C28.1473 31.8289 28.5031 31.5657 28.7726 31.1614C29.0442 30.754 29.2081 30.2332 29.2081 29.5833C29.2081 28.3299 28.5959 25.9514 26.5304 23.8859C24.4503 21.8058 20.9386 20.0833 15.2081 20.0833C9.47768 20.0833 5.96595 21.8058 3.88583 23.8859C1.82036 25.9514 1.20813 28.3299 1.20813 29.5833C1.20813 30.2332 1.37206 30.754 1.64367 31.1614C1.91318 31.5657 2.26896 31.8289 2.60952 31.9992C2.94813 32.1685 3.28068 32.2507 3.52437 32.2913C3.64739 32.3118 3.75101 32.3222 3.82583 32.3276C3.86332 32.3303 3.89383 32.3317 3.9162 32.3324L3.94361 32.3331L3.95253 32.3332L3.95575 32.3332L3.95705 32.3333L3.95761 32.3333ZM26.4341 7.0592C26.1293 7.36395 25.9581 7.77728 25.9581 8.20825C25.9581 8.63923 26.1293 9.05255 26.4341 9.3573C26.7388 9.66205 27.1522 9.83325 27.5831 9.83325H36.5831C37.0141 9.83325 37.4274 9.66205 37.7322 9.3573C38.0369 9.05255 38.2081 8.63923 38.2081 8.20825C38.2081 7.77728 38.0369 7.36395 37.7322 7.05921C37.4274 6.75446 37.0141 6.58325 36.5831 6.58325H27.5831C27.1522 6.58325 26.7388 6.75446 26.4341 7.0592ZM27.5831 13.3333C27.1522 13.3333 26.7388 13.5045 26.4341 13.8092C26.1293 14.114 25.9581 14.5273 25.9581 14.9583C25.9581 15.3892 26.1293 15.8026 26.4341 16.1073C26.7388 16.412 27.1522 16.5833 27.5831 16.5833H36.5831C37.0141 16.5833 37.4274 16.412 37.7322 16.1073C38.0369 15.8026 38.2081 15.3892 38.2081 14.9583C38.2081 14.5273 38.0369 14.1139 37.7322 13.8092C37.4274 13.5045 37.0141 13.3333 36.5831 13.3333H27.5831ZM32.0831 20.0833C31.6522 20.0833 31.2388 20.2545 30.9341 20.5592C30.6293 20.8639 30.4581 21.2773 30.4581 21.7083C30.4581 22.1392 30.6293 22.5526 30.9341 22.8573C31.2388 23.162 31.6522 23.3333 32.0831 23.3333H36.5831C37.0141 23.3333 37.4274 23.162 37.7322 22.8573C38.0369 22.5526 38.2081 22.1392 38.2081 21.7083C38.2081 21.2773 38.0369 20.8639 37.7322 20.5592C37.4274 20.2545 37.0141 20.0833 36.5831 20.0833H32.0831ZM32.0831 26.8333C31.6522 26.8333 31.2388 27.0045 30.9341 27.3092C30.6293 27.6139 30.4581 28.0273 30.4581 28.4583C30.4581 28.8892 30.6293 29.3026 30.9341 29.6073C31.2388 29.912 31.6522 30.0833 32.0831 30.0833H36.5831C37.0141 30.0833 37.4274 29.912 37.7322 29.6073C38.0369 29.3026 38.2081 28.8892 38.2081 28.4583C38.2081 28.0273 38.0369 27.6139 37.7322 27.3092C37.4274 27.0045 37.0141 26.8333 36.5831 26.8333H32.0831Z"
    fill="white" stroke="black" />
</svg>