<svg width="261" height="225" viewBox="0 0 261 225" fill="none" xmlns="http://www.w3.org/2000/svg">
  <path
    d="M113.195 54.9454L113.195 54.9454C111.427 54.549 109.747 54.9202 108.499 55.9188C107.252 56.9174 106.522 58.476 106.522 60.288L106.522 84.0723C106.522 85.6811 106.978 87.2347 108.301 87.7828C109.624 88.331 111.044 87.5544 112.182 86.4168L111.475 85.7097L112.182 86.4168L132.836 65.7619C132.836 65.7619 132.836 65.7619 132.836 65.7619C134.064 64.5346 134.692 63.0486 134.279 61.6256C133.866 60.2026 132.54 59.2836 130.846 58.9039C130.846 58.9039 130.846 58.9038 130.846 58.9038L113.195 54.9454Z"
    fill="#05FF00" stroke="white" stroke-width="2" />
  <path
    d="M176.897 21.701L176.897 21.7009C178.165 20.4327 178.918 18.684 179.152 16.9109C179.385 15.1379 179.11 13.2537 178.213 11.7003L175.408 6.84072C175.408 6.84071 175.408 6.8407 175.408 6.84069C174.53 5.32049 173.056 3.99687 171.426 3.05581C169.796 2.11474 167.912 1.5 166.157 1.5L151.415 1.5C149.777 1.5 148.077 1.76992 146.642 2.20822C145.264 2.62938 143.929 3.26635 143.231 4.13657C142.415 5.15412 142.494 6.61094 142.871 7.86745C143.268 9.1892 144.08 10.6095 145.194 11.8474L160.438 28.7772C160.438 28.7772 160.438 28.7772 160.438 28.7773C162.879 31.4881 167.002 31.5958 169.581 29.0167C169.581 29.0167 169.581 29.0166 169.581 29.0165L176.897 21.701Z"
    fill="white" stroke="white" stroke-width="2" />
  <path
    d="M182.994 113.677L182.995 113.678C184.022 115.119 184.561 116.999 184.649 118.847C184.738 120.694 184.381 122.617 183.496 124.15L182.994 113.677ZM182.994 113.677L173.474 100.324C173.474 100.324 173.474 100.324 173.474 100.324C172.508 98.9684 171.205 98.0313 169.782 98.2996C168.36 98.568 167.488 99.9154 167.082 101.53L158.2 136.835C157.759 138.59 158.084 140.27 159.06 141.522C160.036 142.775 161.586 143.5 163.396 143.5L166.157 143.5C167.913 143.5 169.796 142.885 171.426 141.944C173.056 141.003 174.53 139.679 175.408 138.159C175.408 138.159 175.408 138.159 175.408 138.159L183.496 124.15L182.994 113.677Z"
    fill="#05FF00" stroke="white" stroke-width="2" />
  <path
    d="M59.1131 89.4124L59.113 89.4123C58.6993 88.6956 58.4126 88.0179 58.3033 87.4091C58.1974 86.8193 58.2291 86.0923 58.7441 85.5486C59.2591 85.0049 59.9834 84.9339 60.5781 85.0078C61.1919 85.0841 61.8842 85.3338 62.6222 85.7083L89.7598 99.4707C91.3665 100.286 92.4091 101.609 92.6549 103.152C92.9008 104.695 92.3213 106.277 91.0474 107.551L59.1131 89.4124ZM59.1131 89.4124L73.9948 115.187C74.8987 116.753 76.2963 117.73 77.865 117.937C79.4336 118.143 81.0365 117.562 82.315 116.283C82.315 116.283 82.3151 116.283 82.3151 116.283L91.0473 107.551L59.1131 89.4124Z"
    fill="#05FF00" stroke="white" stroke-width="2" />
  <path
    d="M166.007 73.5663L166.007 73.5663L160.69 94.7031L160.69 94.7031C160.275 96.3503 159.341 98.1644 158.201 99.7697C157.061 101.375 155.656 102.855 154.238 103.789L166.007 73.5663ZM166.007 73.5663C166.895 70.0395 164.714 66.4987 161.166 65.7027L161.166 65.7027L153.149 63.9049C153.149 63.9049 153.149 63.9049 153.149 63.9049C151.443 63.5225 149.459 63.6893 147.639 64.2175C145.819 64.7457 144.053 65.6667 142.817 66.9029C142.817 66.903 142.817 66.903 142.817 66.903L134.043 75.676L134.043 75.6761C132.786 76.9335 131.97 78.6954 131.624 80.4949C131.278 82.2944 131.382 84.2331 132.083 85.8668L140.282 104.981L140.282 104.981C141.74 108.379 145.536 109.518 148.624 107.485C148.624 107.485 148.624 107.485 148.624 107.485L154.237 103.789L166.007 73.5663Z"
    fill="white" stroke="white" stroke-width="2" />
  <path
    d="M130.465 7.48679L130.465 7.48677C131.517 6.17436 132.043 4.659 131.414 3.34832C130.785 2.03768 129.274 1.5 127.592 1.5L113.112 1.5C109.485 1.5 106.522 4.46303 106.522 8.08946L106.522 28.9126C106.522 29.7529 106.628 30.502 106.869 31.1082C107.11 31.7147 107.534 32.2823 108.218 32.5225C108.902 32.7626 109.588 32.585 110.155 32.2626C110.722 31.9404 111.273 31.422 111.799 30.7665L111.799 30.7664L130.465 7.48679Z"
    fill="white" stroke="white" stroke-width="2" />
  <path
    d="M154.402 119.698L154.402 119.698L149.968 137.323C149.968 137.323 149.968 137.323 149.968 137.323C149.106 140.749 145.578 143.5 142.045 143.5L117.149 143.5C116.321 143.5 115.589 143.409 115.006 143.198C114.44 142.993 113.829 142.6 113.615 141.884C113.4 141.168 113.695 140.504 114.055 140.021C114.426 139.525 114.986 139.046 115.678 138.591L154.402 119.698ZM154.402 119.698C154.609 118.875 154.683 118.109 154.582 117.443C154.481 116.771 154.187 116.129 153.603 115.714C153.018 115.299 152.315 115.233 151.647 115.359C150.985 115.484 150.286 115.806 149.577 116.273C149.577 116.273 149.577 116.273 149.577 116.273L115.678 138.591L154.402 119.698Z"
    fill="white" stroke="white" stroke-width="2" />
  <path
    d="M84.6906 133.713L84.6905 133.713C83.7938 132.16 83.519 130.276 83.7524 128.503C83.9858 126.73 84.7388 124.981 86.007 123.713L86.0071 123.713M84.6906 133.713L88.1236 137.659C89.6603 140.322 92.4347 142.5 94.2881 142.5C96.1419 142.5 97.6581 139.985 97.6581 136.91L97.6581 119.066C97.6581 115.991 95.8793 115.254 93.706 117.428L86.7141 124.42L86.0071 123.713M84.6906 133.713L87.2575 138.159M84.6906 133.713L87.2575 138.159M86.0071 123.713L92.9988 116.721M86.0071 123.713L92.9988 116.721M87.2575 138.159C87.2576 138.159 87.2576 138.159 87.2576 138.159C88.0921 139.605 89.2555 140.911 90.4695 141.864C91.6488 142.791 93.0261 143.5 94.2881 143.5C95.7045 143.5 96.8186 142.546 97.5247 141.374C98.2435 140.182 98.6581 138.6 98.6581 136.91L98.6581 119.066C98.6581 117.457 98.2028 115.903 96.8798 115.355C95.5567 114.807 94.1363 115.583 92.9989 116.721L93.7048 117.427L92.9988 116.721M87.2575 138.159L92.9988 116.721"
    fill="white" stroke="white" stroke-width="2" />
  <path
    d="M53.7169 64.934L53.7168 64.934C51.893 68.0935 53.0682 72.0453 56.3212 73.6952L56.3213 73.6953L92.2202 91.9012L92.2203 91.9013C93.798 92.7012 95.4303 92.7954 96.7171 92.0051C98.004 91.2149 98.6581 89.7165 98.6581 87.9478L98.6581 58.0756C98.6581 54.5336 95.8795 51.0623 92.4229 50.2873C92.4229 50.2873 92.4229 50.2873 92.4228 50.2873L71.8122 45.6654L71.8122 45.6654C70.0672 45.2741 68.1709 45.5591 66.5187 46.2837C64.8666 47.0082 63.3725 48.2101 62.4784 49.7591C62.4784 49.7592 62.4784 49.7592 62.4783 49.7593L53.7169 64.934Z"
    fill="white" stroke="white" stroke-width="2" />
  <path
    d="M160.97 57.5989L160.97 57.599L203.54 67.1448C203.54 67.1448 203.54 67.1448 203.54 67.1448C205.139 67.5036 206.743 67.3632 207.596 66.2033C208.448 65.0434 208.104 63.4708 207.284 62.0515L206.418 62.5515L207.284 62.0515L188.909 30.226C188.909 30.226 188.909 30.226 188.909 30.2259C188.005 28.66 186.608 27.6831 185.039 27.4766C183.47 27.27 181.868 27.8518 180.589 29.1302L180.589 29.1303L158.979 50.7404C158.979 50.7405 158.979 50.7405 158.979 50.7405C157.752 51.9678 157.124 53.4538 157.537 54.8769C157.95 56.2999 159.276 57.219 160.97 57.5989Z"
    fill="white" stroke="white" stroke-width="2" />
  <path
    d="M110.768 98.9517L110.767 98.9518C109.561 100.159 108.509 101.9 107.759 103.71C107.01 105.519 106.522 107.494 106.522 109.201L106.522 127.758C106.522 129.487 107.119 130.983 108.419 131.683C109.719 132.384 111.297 132.06 112.74 131.11L112.741 131.11L130.917 119.143C130.917 119.143 130.917 119.143 130.917 119.143C133.889 117.186 135.154 112.973 133.751 109.703L126.41 92.5895C125.704 90.9442 124.474 89.8257 122.962 89.5347C121.451 89.2437 119.894 89.8259 118.628 91.0918L118.627 91.0918L110.768 98.9517Z"
    fill="#05FF00" stroke="white" stroke-width="2" />
  <path
    d="M91.9853 42.1301L91.9853 42.1301L76.5419 38.6669C74.7825 38.2724 73.4433 37.2422 72.814 35.8072C72.1846 34.3722 72.3338 32.6891 73.2356 31.1274L91.9853 42.1301ZM91.9853 42.1301C93.7534 42.5265 95.4338 42.1552 96.6811 41.1566C97.9283 40.1579 98.6581 38.5994 98.6581 36.7876L98.6581 8.08947C98.6581 6.39992 98.2435 4.81801 97.5247 3.62563C96.8186 2.45439 95.7045 1.5 94.2881 1.5C93.0261 1.5 91.6489 2.20933 90.4695 3.13533C89.2555 4.08857 88.0921 5.39489 87.2576 6.84067C87.2576 6.84072 87.2576 6.84077 87.2575 6.84082L73.2356 31.1273L91.9853 42.1301Z"
    fill="#05FF00" stroke="white" stroke-width="2" />
  <path
    d="M154.692 43.9063L154.692 43.9064L148.999 49.5992C147.763 50.8355 145.997 51.7567 144.177 52.2851C142.356 52.8134 140.372 52.9804 138.666 52.5977L154.692 43.9063ZM154.692 43.9063C157.242 41.3561 157.353 37.1038 154.94 34.4238L154.94 34.4237L140.428 18.307C137.959 15.5639 133.977 15.6781 131.668 18.5579L114.1 40.4682C112.992 41.8512 112.568 43.4346 113.069 44.864C113.57 46.2933 114.889 47.2661 116.619 47.654C116.619 47.654 116.619 47.654 116.619 47.654L138.666 52.5977L154.692 43.9063Z"
    fill="#05FF00" stroke="white" stroke-width="2" />
  <path
    d="M204.032 75.3142L204.032 75.3142L181.703 70.3077C181.703 70.3077 181.703 70.3076 181.703 70.3076C178.173 69.516 174.579 71.7302 173.696 75.2371L173.696 75.2371L172.968 78.128L172.968 78.1282C172.548 79.7986 172.587 81.819 172.946 83.7228C173.305 85.6266 174.005 87.5222 175.005 88.9249L175.798 88.3596L175.005 88.9249L186.786 105.45L186.786 105.45C187.82 106.899 189.239 107.733 190.761 107.66C192.283 107.587 193.616 106.621 194.506 105.08L193.733 104.633L194.506 105.08L207.338 82.8542C207.338 82.8542 207.338 82.8542 207.338 82.8541C208.24 81.2926 208.389 79.6096 207.76 78.1745C207.13 76.7394 205.791 75.7089 204.032 75.3142Z"
    fill="#05FF00" stroke="white" stroke-width="2" />
  <path
    d="M18.48 213.124C16.208 213.124 14.072 212.676 12.072 211.78C10.072 210.868 8.312 209.612 6.792 208.012C5.272 206.412 4.08 204.564 3.216 202.468C2.352 200.356 1.92 198.1 1.92 195.7C1.92 193.3 2.352 191.052 3.216 188.956C4.08 186.844 5.272 184.988 6.792 183.388C8.312 181.788 10.072 180.54 12.072 179.644C14.072 178.732 16.208 178.276 18.48 178.276C20.768 178.276 22.912 178.732 24.912 179.644C26.912 180.54 28.672 181.788 30.192 183.388C31.712 184.988 32.896 186.844 33.744 188.956C34.608 191.052 35.04 193.3 35.04 195.7C35.04 198.1 34.608 200.356 33.744 202.468C32.896 204.564 31.712 206.412 30.192 208.012C28.672 209.612 26.912 210.868 24.912 211.78C22.912 212.676 20.768 213.124 18.48 213.124ZM18.48 206.5C19.84 206.5 21.12 206.22 22.32 205.66C23.52 205.084 24.576 204.3 25.488 203.308C26.4 202.316 27.112 201.172 27.624 199.876C28.152 198.58 28.416 197.188 28.416 195.7C28.416 194.212 28.152 192.82 27.624 191.524C27.112 190.212 26.4 189.068 25.488 188.092C24.576 187.1 23.52 186.324 22.32 185.764C21.12 185.188 19.84 184.9 18.48 184.9C17.12 184.9 15.84 185.188 14.64 185.764C13.44 186.324 12.384 187.1 11.472 188.092C10.56 189.084 9.84 190.228 9.312 191.524C8.8 192.82 8.544 194.212 8.544 195.7C8.544 197.188 8.8 198.588 9.312 199.9C9.84 201.196 10.56 202.34 11.472 203.332C12.384 204.308 13.44 205.084 14.64 205.66C15.84 206.22 17.12 206.5 18.48 206.5ZM61.8791 197.236V212.5H55.2551V199.06C55.2551 198.212 55.0471 197.452 54.6311 196.78C54.2311 196.092 53.6871 195.548 52.9991 195.148C52.3271 194.748 51.5751 194.548 50.7431 194.548C49.9111 194.548 49.1511 194.748 48.4631 195.148C47.7751 195.548 47.2311 196.092 46.8311 196.78C46.4311 197.452 46.2311 198.212 46.2311 199.06V212.5H39.6071L39.5831 188.5H46.2071L46.2311 190.276C47.0311 189.508 47.9671 188.908 49.0391 188.476C50.1271 188.044 51.2711 187.828 52.4711 187.828C54.2151 187.828 55.7911 188.252 57.1991 189.1C58.6231 189.948 59.7591 191.084 60.6071 192.508C61.4551 193.916 61.8791 195.492 61.8791 197.236ZM66.6769 194.788H82.0369V201.412H66.6769V194.788ZM102.026 204.916L107.978 208.132C106.874 209.636 105.49 210.844 103.826 211.756C102.162 212.668 100.346 213.124 98.3775 213.124C96.1695 213.124 94.1535 212.556 92.3295 211.42C90.5215 210.284 89.0735 208.764 87.9855 206.86C86.9135 204.94 86.3775 202.82 86.3775 200.5C86.3775 198.74 86.6895 197.1 87.3135 195.58C87.9375 194.044 88.7935 192.7 89.8815 191.548C90.9855 190.38 92.2655 189.468 93.7215 188.812C95.1775 188.156 96.7295 187.828 98.3775 187.828C100.346 187.828 102.162 188.284 103.826 189.196C105.49 190.108 106.874 191.332 107.978 192.868L102.026 196.084C101.53 195.556 100.962 195.156 100.322 194.884C99.6975 194.596 99.0495 194.452 98.3775 194.452C97.3535 194.452 96.4335 194.732 95.6175 195.292C94.8175 195.852 94.1775 196.596 93.6975 197.524C93.2335 198.436 93.0015 199.428 93.0015 200.5C93.0015 201.556 93.2415 202.54 93.7215 203.452C94.2015 204.364 94.8415 205.1 95.6415 205.66C96.4575 206.22 97.3695 206.5 98.3775 206.5C99.0655 206.5 99.7215 206.356 100.346 206.068C100.97 205.78 101.53 205.396 102.026 204.916ZM133.692 197.236V212.5H127.068V199.06C127.068 198.212 126.86 197.452 126.444 196.78C126.044 196.092 125.5 195.548 124.812 195.148C124.14 194.748 123.388 194.548 122.556 194.548C121.724 194.548 120.964 194.748 120.276 195.148C119.588 195.548 119.044 196.092 118.644 196.78C118.244 197.452 118.044 198.212 118.044 199.06V212.5H111.42L111.396 176.5H118.02L118.044 190.276C118.844 189.508 119.78 188.908 120.852 188.476C121.94 188.044 123.084 187.828 124.284 187.828C126.028 187.828 127.604 188.252 129.012 189.1C130.436 189.948 131.572 191.084 132.42 192.508C133.268 193.916 133.692 195.492 133.692 197.236ZM155.637 188.5H162.261V212.5H155.613L155.301 210.004C154.677 210.932 153.877 211.684 152.901 212.26C151.925 212.836 150.781 213.124 149.469 213.124C147.677 213.124 146.005 212.788 144.453 212.116C142.901 211.444 141.533 210.516 140.349 209.332C139.165 208.148 138.237 206.78 137.565 205.228C136.909 203.66 136.581 201.98 136.581 200.188C136.581 198.476 136.893 196.876 137.517 195.388C138.141 193.9 139.021 192.588 140.157 191.452C141.293 190.316 142.597 189.428 144.069 188.788C145.557 188.148 147.157 187.828 148.869 187.828C150.341 187.828 151.661 188.14 152.829 188.764C154.013 189.388 155.045 190.18 155.925 191.14L155.637 188.5ZM149.301 206.764C150.389 206.764 151.373 206.484 152.253 205.924C153.133 205.364 153.829 204.612 154.341 203.668C154.853 202.708 155.109 201.652 155.109 200.5C155.109 199.332 154.853 198.276 154.341 197.332C153.829 196.388 153.133 195.636 152.253 195.076C151.373 194.516 150.389 194.236 149.301 194.236C148.197 194.236 147.197 194.516 146.301 195.076C145.405 195.636 144.693 196.396 144.165 197.356C143.637 198.3 143.373 199.348 143.373 200.5C143.373 201.652 143.637 202.708 144.165 203.668C144.709 204.612 145.429 205.364 146.325 205.924C147.221 206.484 148.213 206.764 149.301 206.764ZM167.083 188.5H173.707V212.5H167.083V188.5ZM170.443 185.74C169.483 185.74 168.675 185.42 168.019 184.78C167.363 184.14 167.035 183.348 167.035 182.404C167.035 181.46 167.363 180.668 168.019 180.028C168.675 179.388 169.475 179.068 170.419 179.068C171.363 179.068 172.155 179.388 172.795 180.028C173.451 180.668 173.779 181.46 173.779 182.404C173.779 183.348 173.459 184.14 172.819 184.78C172.195 185.42 171.403 185.74 170.443 185.74ZM201.52 197.236V212.5H194.896V199.06C194.896 198.212 194.688 197.452 194.272 196.78C193.872 196.092 193.328 195.548 192.64 195.148C191.968 194.748 191.216 194.548 190.384 194.548C189.552 194.548 188.792 194.748 188.104 195.148C187.416 195.548 186.872 196.092 186.472 196.78C186.072 197.452 185.872 198.212 185.872 199.06V212.5H179.248L179.224 188.5H185.848L185.872 190.276C186.672 189.508 187.608 188.908 188.68 188.476C189.768 188.044 190.912 187.828 192.112 187.828C193.856 187.828 195.432 188.252 196.84 189.1C198.264 189.948 199.4 191.084 200.248 192.508C201.096 193.916 201.52 195.492 201.52 197.236ZM208.694 213.124C207.766 213.124 206.974 212.804 206.318 212.164C205.678 211.508 205.358 210.708 205.358 209.764C205.358 208.852 205.678 208.068 206.318 207.412C206.974 206.756 207.766 206.428 208.694 206.428C209.622 206.428 210.414 206.756 211.07 207.412C211.726 208.068 212.054 208.852 212.054 209.764C212.054 210.708 211.726 211.508 211.07 212.164C210.414 212.804 209.622 213.124 208.694 213.124ZM218.522 212.5V178.9H225.146V212.5H218.522ZM231.63 212.5V178.9H242.766C245.086 178.9 247.254 179.34 249.27 180.22C251.302 181.084 253.086 182.292 254.622 183.844C256.174 185.38 257.382 187.164 258.246 189.196C259.126 191.212 259.566 193.38 259.566 195.7C259.566 198.02 259.126 200.196 258.246 202.228C257.382 204.244 256.174 206.028 254.622 207.58C253.086 209.116 251.302 210.324 249.27 211.204C247.254 212.068 245.086 212.5 242.766 212.5H231.63ZM238.254 205.876H242.766C244.142 205.876 245.438 205.612 246.654 205.084C247.886 204.556 248.974 203.828 249.918 202.9C250.862 201.972 251.598 200.892 252.126 199.66C252.67 198.428 252.942 197.108 252.942 195.7C252.942 194.292 252.67 192.98 252.126 191.764C251.598 190.532 250.862 189.452 249.918 188.524C248.99 187.58 247.91 186.844 246.678 186.316C245.462 185.788 244.158 185.524 242.766 185.524H238.254V205.876Z"
    fill="white" />
</svg>