<svg width="39" height="37" viewBox="0 0 39 37" fill="none" xmlns="http://www.w3.org/2000/svg">
  <path
    d="M24.2081 21.0291C25.7 21.0291 27.1307 20.4364 28.1856 19.3815C29.2405 18.3266 29.8331 16.8959 29.8331 15.4041C29.8331 13.9122 29.2405 12.4815 28.1856 11.4266C27.1307 10.3717 25.7 9.77905 24.2081 9.77905C22.7163 9.77905 21.2855 10.3717 20.2307 11.4266C19.1758 12.4815 18.5831 13.9122 18.5831 15.4041C18.5831 16.8959 19.1758 18.3266 20.2307 19.3815C21.2855 20.4364 22.7163 21.0291 24.2081 21.0291Z"
    fill="#fff" />
  <path
    d="M6.20813 2.4165C4.88205 2.4165 3.61028 2.94329 2.6726 3.88097C1.73491 4.81865 1.20813 6.09042 1.20813 7.4165V27.6665C1.20813 28.9926 1.73491 30.2644 2.6726 31.202C3.61028 32.1397 4.88205 32.6665 6.20813 32.6665H33.2081C34.5342 32.6665 35.806 32.1397 36.7437 31.202C37.6813 30.2644 38.2081 28.9926 38.2081 27.6665V7.4165C38.2081 6.09042 37.6813 4.81865 36.7437 3.88097C35.806 2.94329 34.5342 2.4165 33.2081 2.4165H6.20813ZM4.45813 7.4165C4.45813 6.95237 4.6425 6.50726 4.97069 6.17907C5.29888 5.85088 5.744 5.6665 6.20813 5.6665H10.2081V9.1665H4.45813V7.4165ZM16.3239 25.0747C14.9811 26.1149 14.0616 27.3618 13.4581 28.5499V5.6665H33.2081C33.6723 5.6665 34.1174 5.85088 34.4456 6.17907C34.7738 6.50726 34.9581 6.95237 34.9581 7.4165V27.6665C34.9581 27.8945 34.9143 28.1127 34.8348 28.313C33.3527 25.58 30.2027 22.6665 24.2081 22.6665C20.6904 22.6665 18.1363 23.6707 16.3239 25.0747ZM4.45813 25.9165H10.2081V29.4165H6.20813C5.744 29.4165 5.29888 29.2321 4.97069 28.9039C4.6425 28.5758 4.45813 28.1306 4.45813 27.6665V25.9165ZM10.2081 22.6665H4.45813V19.1665H10.2081V22.6665ZM10.2081 15.9165H4.45813V12.4165H10.2081V15.9165Z"
    fill="#fff" stroke="black" />
</svg>