<svg width="28" height="24" viewBox="0 0 28 24" fill="none" xmlns="http://www.w3.org/2000/svg">
  <path fill-rule="evenodd" clip-rule="evenodd"
    d="M27.4267 12C27.4267 12.4546 27.2461 12.8905 26.9247 13.212C26.6032 13.5334 26.1673 13.714 25.7127 13.714H5.85458L13.2144 21.0704C13.3738 21.2297 13.5002 21.4189 13.5864 21.6271C13.6727 21.8353 13.717 22.0585 13.717 22.2839C13.717 22.5092 13.6727 22.7324 13.5864 22.9406C13.5002 23.1488 13.3738 23.338 13.2144 23.4974C13.055 23.6567 12.8659 23.7831 12.6576 23.8694C12.4494 23.9556 12.2263 24 12.0009 24C11.7755 24 11.5524 23.9556 11.3442 23.8694C11.1359 23.7831 10.9468 23.6567 10.7874 23.4974L0.503545 13.2135C0.343928 13.0543 0.217289 12.8651 0.130883 12.6569C0.0444764 12.4487 0 12.2254 0 12C0 11.7746 0.0444764 11.5513 0.130883 11.3431C0.217289 11.1349 0.343928 10.9457 0.503545 10.7865L10.7874 0.502647C11.1092 0.180808 11.5458 0 12.0009 0C12.456 0 12.8926 0.180808 13.2144 0.502647C13.5362 0.824486 13.717 1.26099 13.717 1.71614C13.717 2.17129 13.5362 2.6078 13.2144 2.92964L5.85458 10.286H25.7127C26.1673 10.286 26.6032 10.4666 26.9247 10.788C27.2461 11.1095 27.4267 11.5454 27.4267 12Z"
    fill="white" />
</svg>