<svg width="16" height="16" viewBox="0 0 16 16" fill="none" xmlns="http://www.w3.org/2000/svg">
  <path
    d="M0.453557 0.453557C0.55806 0.34879 0.682205 0.265668 0.818882 0.208954C0.955558 0.152239 1.10208 0.123047 1.25006 0.123047C1.39803 0.123047 1.54456 0.152239 1.68123 0.208954C1.81791 0.265668 1.94205 0.34879 2.04656 0.453557L8.00006 6.40931L13.9536 0.453557C14.0582 0.348959 14.1823 0.265988 14.319 0.20938C14.4557 0.152772 14.6021 0.123636 14.7501 0.123636C14.898 0.123636 15.0445 0.152772 15.1811 0.20938C15.3178 0.265988 15.442 0.348959 15.5466 0.453557C15.6512 0.558155 15.7341 0.682331 15.7907 0.818994C15.8473 0.955658 15.8765 1.10213 15.8765 1.25006C15.8765 1.39798 15.8473 1.54446 15.7907 1.68112C15.7341 1.81778 15.6512 1.94196 15.5466 2.04656L9.59081 8.00006L15.5466 13.9536C15.6512 14.0582 15.7341 14.1823 15.7907 14.319C15.8473 14.4557 15.8765 14.6021 15.8765 14.7501C15.8765 14.898 15.8473 15.0445 15.7907 15.1811C15.7341 15.3178 15.6512 15.442 15.5466 15.5466C15.442 15.6512 15.3178 15.7341 15.1811 15.7907C15.0445 15.8473 14.898 15.8765 14.7501 15.8765C14.6021 15.8765 14.4557 15.8473 14.319 15.7907C14.1823 15.7341 14.0582 15.6512 13.9536 15.5466L8.00006 9.59081L2.04656 15.5466C1.94196 15.6512 1.81778 15.7341 1.68112 15.7907C1.54446 15.8473 1.39798 15.8765 1.25006 15.8765C1.10213 15.8765 0.955658 15.8473 0.818994 15.7907C0.682331 15.7341 0.558155 15.6512 0.453557 15.5466C0.348959 15.442 0.265988 15.3178 0.20938 15.1811C0.152772 15.0445 0.123636 14.898 0.123636 14.7501C0.123636 14.6021 0.152772 14.4557 0.20938 14.319C0.265988 14.1823 0.348959 14.0582 0.453557 13.9536L6.40931 8.00006L0.453557 2.04656C0.34879 1.94205 0.265668 1.81791 0.208954 1.68123C0.152239 1.54456 0.123047 1.39803 0.123047 1.25006C0.123047 1.10208 0.152239 0.955558 0.208954 0.818882C0.265668 0.682205 0.34879 0.55806 0.453557 0.453557Z"
    fill="#FF0000" />
</svg>