<svg width="37" height="36" viewBox="0 0 37 36" fill="none" xmlns="http://www.w3.org/2000/svg">
  <g clip-path="url(#clip0_99_529)">
    <path
      d="M10.9163 9V4.5C10.9163 4.10218 11.0743 3.72064 11.3556 3.43934C11.6369 3.15804 12.0184 3 12.4163 3H30.4163C30.8141 3 31.1956 3.15804 31.4769 3.43934C31.7582 3.72064 31.9163 4.10218 31.9163 4.5V25.5C31.9163 25.8978 31.7582 26.2794 31.4769 26.5607C31.1956 26.842 30.8141 27 30.4163 27H25.9163V31.5C25.9163 32.328 25.2413 33 24.4058 33H6.42676C6.22895 33.0012 6.03286 32.9633 5.84974 32.8884C5.66663 32.8136 5.50011 32.7033 5.35975 32.5639C5.21939 32.4246 5.10795 32.2588 5.03184 32.0762C4.95573 31.8936 4.91645 31.6978 4.91626 31.5L4.92076 10.5C4.92076 9.672 5.59576 9 6.43126 9H10.9163ZM7.92076 12L7.91626 30H22.9163V12H7.92076ZM13.9163 9H25.9163V24H28.9163V6H13.9163V9Z"
      fill="#939393" />
  </g>
  <defs>
    <clipPath id="clip0_99_529">
      <rect width="36" height="36" fill="white" transform="translate(0.41626)" />
    </clipPath>
  </defs>
</svg>