<svg width="24" height="24" viewBox="0 0 24 24" fill="none" xmlns="http://www.w3.org/2000/svg">
  <path
    d="M18.2187 0.219364C18.2884 0.149519 18.3711 0.094105 18.4623 0.0562953C18.5534 0.0184856 18.6511 -0.000976563 18.7497 -0.000976562C18.8484 -0.000976562 18.946 0.0184856 19.0372 0.0562953C19.1283 0.094105 19.211 0.149519 19.2807 0.219364L23.7807 4.71936C23.8506 4.78903 23.906 4.8718 23.9438 4.96291C23.9816 5.05403 24.001 5.15171 24.001 5.25036C24.001 5.34902 23.9816 5.4467 23.9438 5.53781C23.906 5.62893 23.8506 5.7117 23.7807 5.78136L8.78071 20.7814C8.70873 20.8528 8.623 20.909 8.52871 20.9464L1.02871 23.9464C0.892413 24.0009 0.743103 24.0143 0.599288 23.9848C0.455474 23.9553 0.32348 23.8842 0.21967 23.7804C0.11586 23.6766 0.0448002 23.5446 0.015299 23.4008C-0.0142021 23.257 -0.000846891 23.1077 0.0537091 22.9714L3.05371 15.4714C3.0911 15.3771 3.14723 15.2913 3.21871 15.2194L18.2187 0.219364ZM16.8102 3.75036L20.2497 7.18986L22.1892 5.25036L18.7497 1.81086L16.8102 3.75036ZM19.1892 8.25036L15.7497 4.81086L5.99971 14.5609V15.0004H6.74971C6.94862 15.0004 7.13939 15.0794 7.28004 15.22C7.42069 15.3607 7.49971 15.5515 7.49971 15.7504V16.5004H8.24971C8.44862 16.5004 8.63939 16.5794 8.78004 16.72C8.92069 16.8607 8.99971 17.0515 8.99971 17.2504V18.0004H9.43921L19.1892 8.25036ZM4.54771 16.0129L4.38871 16.1719L2.09671 21.9034L7.82821 19.6114L7.98721 19.4524C7.84414 19.3989 7.7208 19.303 7.63368 19.1776C7.54656 19.0522 7.49982 18.9031 7.49971 18.7504V18.0004H6.74971C6.5508 18.0004 6.36003 17.9213 6.21938 17.7807C6.07873 17.64 5.99971 17.4493 5.99971 17.2504V16.5004H5.24971C5.09698 16.5002 4.94792 16.4535 4.82247 16.3664C4.69703 16.2793 4.60116 16.1559 4.54771 16.0129Z"
    fill="#939393" />
</svg>