<svg width="49" height="49" viewBox="0 0 49 49" fill="none" xmlns="http://www.w3.org/2000/svg">
  <g clip-path="url(#clip0_70_1206)">
    <path d="M48.4023 0.5H0.402283V48.5H48.4023V0.5Z" fill="#FC6D26" />
    <path fill-rule="evenodd" clip-rule="evenodd"
      d="M36.3311 25.7947L35.0722 21.9268C35.0655 21.8912 35.0553 21.8563 35.0418 21.8227L32.5163 14.0487C32.449 13.8481 32.3201 13.6739 32.1479 13.551C31.9758 13.428 31.7692 13.3626 31.5576 13.364C31.3467 13.3628 31.1409 13.4291 30.9704 13.5533C30.7999 13.6776 30.6737 13.8532 30.6103 14.0544L28.2031 21.4623H20.6053L18.1946 14.0544C18.1313 13.8538 18.0058 13.6788 17.8362 13.5546C17.6665 13.4304 17.4617 13.3637 17.2515 13.364H17.2458C17.0341 13.3641 16.8277 13.4309 16.6561 13.5549C16.4845 13.679 16.3564 13.854 16.29 14.0551L13.7624 21.8383C13.7624 21.8425 13.7603 21.8463 13.7582 21.8501L13.7546 21.8581L12.4731 25.7954C12.3789 26.0841 12.3787 26.3953 12.4725 26.6842C12.5662 26.9731 12.7491 27.2248 12.9949 27.4033L24.0668 35.4484C24.1643 35.519 24.2816 35.5567 24.4019 35.556C24.5222 35.5554 24.6392 35.5165 24.7359 35.4449L35.8099 27.4033C36.0559 27.2248 36.2388 26.9729 36.3324 26.6838C36.4261 26.3947 36.4256 26.0834 36.3311 25.7947ZM19.4138 21.4623L17.2409 14.7836L15.0757 21.4623H19.4138ZM33.7362 21.4623L31.5675 14.7836L29.3954 21.4623H33.7362ZM19.7812 22.5994L22.8675 32.0981L15.4588 22.5994H19.7812ZM25.9409 32.1002L28.9005 22.9937L29.0279 22.5994H33.3539L26.6511 31.1862L25.9409 32.1002ZM20.9742 22.5951H27.8356L24.4024 33.1531L20.9742 22.5951ZM13.6611 26.4871C13.6089 26.4491 13.5701 26.3955 13.5502 26.3341C13.5304 26.2726 13.5305 26.2065 13.5507 26.1451L14.5022 23.221L21.4812 32.1682L13.6611 26.4871ZM27.3237 32.1661L35.1444 26.4871C35.1967 26.449 35.2355 26.3945 35.2552 26.3329C35.2749 26.2713 35.2745 26.2051 35.2542 26.1437L34.3026 23.221L27.3499 32.1321L27.3237 32.1661Z"
      fill="white" />
  </g>
  <defs>
    <clipPath id="clip0_70_1206">
      <rect x="0.402283" y="0.5" width="48" height="48" rx="6" fill="white" />
    </clipPath>
  </defs>
</svg>