<svg width="36" height="37" viewBox="0 0 36 37" fill="none" xmlns="http://www.w3.org/2000/svg">
  <path fill-rule="evenodd" clip-rule="evenodd"
    d="M11.0815 30.3993L15.2939 31.5169V30.0554L15.6378 29.7115H18.0449V31.4309V32.6344H15.4658L12.285 31.259L11.0815 30.3993Z"
    fill="#CDBDB2" />
  <path fill-rule="evenodd" clip-rule="evenodd"
    d="M24.8386 30.3993L20.7121 31.5169V30.0554L20.3683 29.7115H17.9612V31.4309V32.6344H20.5402L23.7209 31.259L24.8386 30.3993Z"
    fill="#CDBDB2" />
  <path fill-rule="evenodd" clip-rule="evenodd"
    d="M15.6437 27.2176L15.2998 30.0545L15.7296 29.7106H20.1998L20.7156 30.0545L20.3718 27.2176L19.684 26.7877L16.2454 26.8738L15.6437 27.2176Z"
    fill="#393939" />
  <path fill-rule="evenodd" clip-rule="evenodd"
    d="M13.319 8.04578L15.3822 12.8599L16.3279 26.8726H19.6806L20.7122 12.8599L22.6034 8.04578H13.319Z"
    fill="#F89C35" />
  <path fill-rule="evenodd" clip-rule="evenodd"
    d="M4.29483 18.6221L1.88776 25.5853L7.90545 25.2415H11.7739V22.2327L11.602 16.0431L10.7423 16.7308L4.29483 18.6221Z"
    fill="#F89D35" />
  <path fill-rule="evenodd" clip-rule="evenodd"
    d="M8.85106 19.3958L15.9003 19.5677L15.1267 23.1784L11.7739 22.3187L8.85106 19.3958Z" fill="#D87C30" />
  <path fill-rule="evenodd" clip-rule="evenodd" d="M8.85106 19.4803L11.7739 22.2312V24.9821L8.85106 19.4803Z"
    fill="#EA8D3A" />
  <path fill-rule="evenodd" clip-rule="evenodd"
    d="M11.771 22.316L15.2097 23.1756L16.3273 26.8723L15.5535 27.3021L11.771 25.0669V22.316Z" fill="#F89D35" />
  <path fill-rule="evenodd" clip-rule="evenodd" d="M11.7692 25.0675L11.0815 30.3975L15.6378 27.2168L11.7692 25.0675Z"
    fill="#EB8F35" />
  <path fill-rule="evenodd" clip-rule="evenodd" d="M15.8956 19.5647L16.3255 26.872L15.0359 23.1324L15.8956 19.5647Z"
    fill="#EA8E3A" />
  <path fill-rule="evenodd" clip-rule="evenodd" d="M7.81651 25.1536L11.771 25.0675L11.0833 30.3975L7.81651 25.1536Z"
    fill="#D87C30" />
  <path fill-rule="evenodd" clip-rule="evenodd"
    d="M3.77903 32.7207L11.0861 30.3995L7.8194 25.1556L1.88776 25.5854L3.77903 32.7207Z" fill="#EB8F35" />
  <path fill-rule="evenodd" clip-rule="evenodd"
    d="M15.3845 12.8623L11.688 15.9571L8.85106 19.3958L15.9003 19.6538L15.3845 12.8623Z" fill="#E8821E" />
  <path fill-rule="evenodd" clip-rule="evenodd"
    d="M11.0815 30.3977L15.6378 27.217L15.2939 29.9679V31.5153L12.1991 30.9135L11.0815 30.3977Z" fill="#DFCEC3" />
  <path fill-rule="evenodd" clip-rule="evenodd"
    d="M24.8386 30.3977L20.3683 27.217L20.7121 29.9679V31.5153L23.807 30.9135L24.8386 30.3977Z" fill="#DFCEC3" />
  <path fill-rule="evenodd" clip-rule="evenodd" d="M14.0096 21.1127L14.9553 23.0901L11.6025 22.2304L14.0096 21.1127Z"
    fill="#393939" />
  <path fill-rule="evenodd" clip-rule="evenodd" d="M3.69304 4.0065L15.3846 12.861L13.4074 8.04687L3.69304 4.0065Z"
    fill="#E88F35" />
  <path fill-rule="evenodd" clip-rule="evenodd"
    d="M3.69188 4.0065L2.14447 8.73468L3.00414 13.8927L2.40237 14.2366L3.26204 15.0103L2.5743 15.612L3.51994 16.4717L2.91817 16.9875L4.29364 18.7068L10.7412 16.7296C13.8933 14.2079 15.4407 12.9184 15.3834 12.8611C15.3261 12.8038 11.4289 9.85225 3.69188 4.0065Z"
    fill="#8E5A30" />
  <path fill-rule="evenodd" clip-rule="evenodd"
    d="M31.6317 18.6215L34.0388 25.5847L28.0211 25.2408H24.1526V22.2321L24.3246 16.0424L25.1843 16.7302L31.6317 18.6215Z"
    fill="#F89D35" />
  <path fill-rule="evenodd" clip-rule="evenodd"
    d="M27.076 19.3954L20.0267 19.5674L20.8003 23.178L24.1531 22.3183L27.076 19.3954Z" fill="#D87C30" />
  <path fill-rule="evenodd" clip-rule="evenodd" d="M27.076 19.4799L24.1531 22.2309V24.9818L27.076 19.4799Z"
    fill="#EA8D3A" />
  <path fill-rule="evenodd" clip-rule="evenodd"
    d="M24.1561 22.3156L20.7175 23.1753L19.5998 26.872L20.3736 27.3017L24.1561 25.0666V22.3156Z" fill="#F89D35" />
  <path fill-rule="evenodd" clip-rule="evenodd" d="M24.1502 25.0669L24.8379 30.3968L20.3676 27.302L24.1502 25.0669Z"
    fill="#EB8F35" />
  <path fill-rule="evenodd" clip-rule="evenodd" d="M20.0238 19.5665L19.5938 26.8737L20.8834 23.1341L20.0238 19.5665Z"
    fill="#EA8E3A" />
  <path fill-rule="evenodd" clip-rule="evenodd" d="M28.1076 25.1529L24.1531 25.0669L24.8408 30.3968L28.1076 25.1529Z"
    fill="#D87C30" />
  <path fill-rule="evenodd" clip-rule="evenodd"
    d="M32.1475 32.7201L24.8404 30.3989L28.1071 25.155L34.0388 25.5847L32.1475 32.7201Z" fill="#EB8F35" />
  <path fill-rule="evenodd" clip-rule="evenodd"
    d="M20.5425 12.8619L24.239 15.9567L27.076 19.3954L20.0267 19.6534L20.5425 12.8619Z" fill="#E8821E" />
  <path fill-rule="evenodd" clip-rule="evenodd" d="M21.9175 21.1124L20.9718 23.0897L24.3246 22.2301L21.9175 21.1124Z"
    fill="#393939" />
  <path fill-rule="evenodd" clip-rule="evenodd" d="M32.2341 4.00615L20.5425 12.8607L22.5197 8.04652L32.2341 4.00615Z"
    fill="#E88F35" />
  <path fill-rule="evenodd" clip-rule="evenodd"
    d="M32.234 4.00615L33.7814 8.73433L32.9218 13.8924L33.5235 14.2362L32.6639 15.0099L33.3516 15.6117L32.406 16.4714L33.0077 16.9872L31.6323 18.7065L25.1848 16.7293C22.0326 14.2076 20.4852 12.9181 20.5425 12.8608C20.5999 12.8034 24.497 9.8519 32.234 4.00615Z"
    fill="#8E5A30" />
</svg>