<svg width="36" height="37" viewBox="0 0 36 37" fill="none" xmlns="http://www.w3.org/2000/svg">
  <g clip-path="url(#clip0_49_259)">
    <path
      d="M18 36.5C27.9411 36.5 36 28.4411 36 18.5C36 8.55887 27.9411 0.5 18 0.5C8.05887 0.5 0 8.55887 0 18.5C0 28.4411 8.05887 36.5 18 36.5Z"
      fill="url(#paint0_linear_49_259)" />
    <path
      d="M31.1017 18.7571H27.8837C27.8837 12.2464 22.5486 6.96875 15.9672 6.96875C9.46721 6.96875 4.18263 12.1172 4.05331 18.5164C3.91949 25.131 10.1928 30.875 16.8802 30.875H17.7214C23.6172 30.875 31.5194 26.3094 32.7541 20.7465C32.9822 19.721 32.1632 18.7571 31.1017 18.7571ZM11.185 19.0471C11.185 19.9178 10.4652 20.6299 9.58505 20.6299C8.70493 20.6299 7.98513 19.9175 7.98513 19.0471V16.4866C7.98513 15.616 8.70493 14.9039 9.58505 14.9039C10.4652 14.9039 11.185 15.616 11.185 16.4866V19.0471ZM16.7407 19.0471C16.7407 19.9178 16.0209 20.6299 15.1407 20.6299C14.2606 20.6299 13.5408 19.9175 13.5408 19.0471V16.4866C13.5408 15.616 14.2609 14.9039 15.1407 14.9039C16.0209 14.9039 16.7407 15.616 16.7407 16.4866V19.0471Z"
      fill="url(#paint1_linear_49_259)" />
  </g>
  <defs>
    <linearGradient id="paint0_linear_49_259" x1="18" y1="0.5" x2="18" y2="36.5" gradientUnits="userSpaceOnUse">
      <stop stop-color="#534BB1" />
      <stop offset="1" stop-color="#551BF9" />
    </linearGradient>
    <linearGradient id="paint1_linear_49_259" x1="18.4219" y1="6.96875" x2="18.4219" y2="30.875"
      gradientUnits="userSpaceOnUse">
      <stop stop-color="white" />
      <stop offset="1" stop-color="white" stop-opacity="0.82" />
    </linearGradient>
    <clipPath id="clip0_49_259">
      <rect width="36" height="36" fill="white" transform="translate(0 0.5)" />
    </clipPath>
  </defs>
</svg>