<svg width="37" height="37" viewBox="0 0 37 37" fill="none" xmlns="http://www.w3.org/2000/svg">
  <path
    d="M11.0512 10.9534C11.1557 10.8487 11.2799 10.7655 11.4165 10.7088C11.5532 10.6521 11.6997 10.6229 11.8477 10.6229C11.9957 10.6229 12.1422 10.6521 12.2789 10.7088C12.4156 10.7655 12.5397 10.8487 12.6442 10.9534L18.5977 16.9092L24.5512 10.9534C24.6558 10.8488 24.78 10.7659 24.9166 10.7093C25.0533 10.6526 25.1998 10.6235 25.3477 10.6235C25.4956 10.6235 25.6421 10.6526 25.7788 10.7093C25.9154 10.7659 26.0396 10.8488 26.1442 10.9534C26.2488 11.058 26.3318 11.1822 26.3884 11.3189C26.445 11.4555 26.4741 11.602 26.4741 11.7499C26.4741 11.8979 26.445 12.0443 26.3884 12.181C26.3318 12.3177 26.2488 12.4418 26.1442 12.5464L20.1885 18.4999L26.1442 24.4534C26.2488 24.558 26.3318 24.6822 26.3884 24.8189C26.445 24.9555 26.4741 25.102 26.4741 25.2499C26.4741 25.3979 26.445 25.5443 26.3884 25.681C26.3318 25.8177 26.2488 25.9418 26.1442 26.0464C26.0396 26.151 25.9154 26.234 25.7788 26.2906C25.6421 26.3472 25.4956 26.3764 25.3477 26.3764C25.1998 26.3764 25.0533 26.3472 24.9166 26.2906C24.78 26.234 24.6558 26.151 24.5512 26.0464L18.5977 20.0907L12.6442 26.0464C12.5396 26.151 12.4154 26.234 12.2788 26.2906C12.1421 26.3472 11.9956 26.3764 11.8477 26.3764C11.6998 26.3764 11.5533 26.3472 11.4167 26.2906C11.28 26.234 11.1558 26.151 11.0512 26.0464C10.9466 25.9418 10.8636 25.8177 10.807 25.681C10.7504 25.5443 10.7213 25.3979 10.7213 25.2499C10.7213 25.102 10.7504 24.9555 10.807 24.8189C10.8636 24.6822 10.9466 24.558 11.0512 24.4534L17.007 18.4999L11.0512 12.5464C10.9464 12.4419 10.8633 12.3178 10.8066 12.1811C10.7499 12.0444 10.7207 11.8979 10.7207 11.7499C10.7207 11.602 10.7499 11.4554 10.8066 11.3188C10.8633 11.1821 10.9464 11.0579 11.0512 10.9534Z"
    fill="#939393" />
</svg>