<svg width="37" height="36" viewBox="0 0 37 36" fill="none" xmlns="http://www.w3.org/2000/svg">
  <path
    d="M25.4832 10.0999L25.1296 10.4535L25.4832 10.0999C25.1782 9.79493 24.7645 9.62358 24.3331 9.62358C23.9018 9.62358 23.4881 9.79493 23.1831 10.0999L23.5366 10.4535L23.1831 10.0999C22.8781 10.405 22.7067 10.8186 22.7067 11.25C22.7067 11.6814 22.8781 12.095 23.1831 12.4001L23.1832 12.4001L27.1599 16.375H15.3331C14.9022 16.375 14.4888 16.5462 14.1841 16.851C13.8793 17.1557 13.7081 17.569 13.7081 18C13.7081 18.431 13.8793 18.8443 14.1841 19.149C14.4888 19.4538 14.9022 19.625 15.3331 19.625H27.1599L23.1832 23.5999L23.1831 23.5999C22.8781 23.905 22.7067 24.3186 22.7067 24.75C22.7067 25.1814 22.8781 25.595 23.1831 25.9001L23.5366 25.5465L23.1831 25.9001C23.4881 26.2051 23.9018 26.3764 24.3331 26.3764C24.7645 26.3764 25.1782 26.2051 25.4832 25.9001L32.2327 19.1505C32.3841 18.9995 32.5041 18.8202 32.5861 18.6228C32.668 18.4254 32.7101 18.2137 32.7101 18C32.7101 17.7863 32.668 17.5746 32.5861 17.3772C32.5042 17.18 32.3843 17.0008 32.2332 16.8499C32.233 16.8498 32.2329 16.8496 32.2327 16.8495L25.4832 10.0999ZM7.43408 33.774C7.73883 34.0788 8.15215 34.25 8.58313 34.25C9.01411 34.25 9.42743 34.0788 9.73218 33.774C10.0369 33.4693 10.2081 33.056 10.2081 32.625V3.375C10.2081 2.94402 10.0369 2.5307 9.73218 2.22595C9.42743 1.9212 9.01411 1.75 8.58313 1.75C8.15215 1.75 7.73883 1.9212 7.43408 2.22595C7.12934 2.5307 6.95813 2.94402 6.95813 3.375V32.625C6.95813 33.056 7.12933 33.4693 7.43408 33.774Z"
    fill="white" stroke="black" />
</svg>